<?xml version="1.0" encoding="UTF-8"?>
<svg width="512px" height="512px" viewBox="0 0 512 512" version="1.1" xmlns="http://www.w3.org/2000/svg" xmlns:xlink="http://www.w3.org/1999/xlink">
    <title>bone-2</title>
    <g id="Website" stroke="none" stroke-width="1" fill="none" fill-rule="evenodd">
        <g id="bone-2" fill-rule="nonzero">
            <path d="M159.601562,512 C115.890625,512 80.332031,476.441406 80.332031,432.734375 C80.332031,432.375 80.335938,432.015625 80.339844,431.660156 C79.980469,431.664062 79.625,431.664062 79.265625,431.664062 C35.558594,431.667969 0,396.109375 0,352.398438 C0,308.691406 35.558594,273.132812 79.265625,273.132812 C95.34375,273.132812 110.691406,277.890625 123.707031,286.746094 L286.746094,123.699219 C277.894531,110.6875 273.136719,95.339844 273.136719,79.265625 C273.132812,35.558594 308.691406,0 352.398438,0 C396.109375,0 431.667969,35.558594 431.667969,79.265625 C431.667969,79.625 431.664062,79.984375 431.660156,80.339844 C432.015625,80.335938 432.375,80.335938 432.734375,80.335938 C476.441406,80.335938 512,115.894531 512,159.601562 C512,203.308594 476.441406,238.867188 432.734375,238.867188 C416.65625,238.867188 401.308594,234.105469 388.289062,225.25 L225.253906,388.292969 C234.105469,401.308594 238.867188,416.65625 238.867188,432.734375 C238.867188,476.441406 203.308594,512 159.601562,512 Z" id="Shape" fill="#000000"></path>
            <path d="M112.496094,418.257812 C111.0625,422.910156 110.335938,427.78125 110.335938,432.734375 C110.335938,459.898438 132.433594,482 159.601562,482 C186.765625,482 208.867188,459.898438 208.867188,432.734375 C208.867188,419.582031 203.742188,407.210938 194.429688,397.902344 C188.574219,392.046875 188.574219,382.546875 194.429688,376.691406 L376.691406,194.421875 C382.546875,188.5625 392.050781,188.570312 397.902344,194.421875 C407.21875,203.734375 419.585938,208.867188 432.734375,208.867188 C459.898438,208.867188 482,186.765625 482,159.597656 C482,132.433594 459.898438,110.332031 432.734375,110.332031 C427.789062,110.332031 422.914062,111.058594 418.253906,112.496094 C406.757812,116.027344 395.964844,105.242188 399.503906,93.746094 C400.9375,89.082031 401.667969,84.210938 401.667969,79.265625 C401.667969,52.101562 379.566406,30 352.398438,30 C325.234375,30 303.132812,52.101562 303.132812,79.265625 C303.132812,92.414062 308.261719,104.78125 317.570312,114.089844 C323.429688,119.945312 323.421875,129.449219 317.570312,135.300781 L135.308594,317.570312 C129.453125,323.429688 119.949219,323.421875 114.097656,317.570312 C104.785156,308.261719 92.417969,303.132812 79.265625,303.132812 C52.101562,303.132812 30,325.234375 30,352.398438 C30,379.566406 52.101562,401.667969 79.265625,401.667969 C84.191406,401.667969 89.070312,400.9375 93.765625,399.496094 C106.1875,395.691406 115.757812,407.671875 112.496094,418.257812 L112.496094,418.257812 Z" id="Path" fill="#FFFFFF"></path>
        </g>
    </g>
</svg>